<?xml version="1.0" encoding="UTF-8" standalone="no"?>
<svg width="623px" height="72px" viewBox="0 0 623 72" version="1.1" xmlns="http://www.w3.org/2000/svg" xmlns:xlink="http://www.w3.org/1999/xlink" xmlns:sketch="http://www.bohemiancoding.com/sketch/ns">
    <title>Untitled 20</title>
    <description>Created with Sketch (http://www.bohemiancoding.com/sketch)</description>
    <defs></defs>
    <g id="Page-1" stroke="none" stroke-width="1" fill="none" fill-rule="evenodd" sketch:type="MSPage">
        <path d="M43.103,24.266 L37.463,24.266 C35.743,24.266 34.883,23.406 34.883,21.687 L34.883,17.864 C34.883,16.048 34.308,14.614 33.162,13.372 C31.919,12.128 30.581,11.459 29.052,11.459 L16.629,11.459 C15.005,11.459 13.665,12.034 12.519,13.275 C11.276,14.517 10.703,16.047 10.703,17.863 L10.703,55.994 C10.703,57.81 11.276,59.245 12.426,60.486 C13.666,61.728 15.006,62.397 16.534,62.397 L29.053,62.397 C30.582,62.397 31.92,61.823 33.068,60.582 C34.309,59.34 34.883,57.811 34.883,55.994 L34.883,52.076 C34.883,50.451 35.743,49.591 37.463,49.591 L43.006,49.591 C44.724,49.591 45.585,50.451 45.585,52.076 L45.585,55.994 C45.585,60.582 43.96,64.404 40.807,67.367 C37.654,70.331 33.737,71.859 29.052,71.859 L16.533,71.859 C11.946,71.859 8.028,70.331 4.873,67.367 C1.625,64.405 0,60.583 0,55.995 L0,17.864 C0,13.276 1.625,9.453 4.777,6.49 C8.028,3.529 11.946,2 16.629,2 L29.052,2 C33.737,2 37.654,3.529 40.807,6.491 C44.057,9.454 45.681,13.276 45.681,17.865 L45.681,21.783 C45.681,23.406 44.821,24.266 43.103,24.266 L43.103,24.266 Z M59.917,15.985 L54.278,15.985 C52.558,15.985 51.698,15.125 51.698,13.502 L51.698,9.008 C51.698,7.384 52.558,6.525 54.278,6.525 L59.917,6.525 C61.635,6.525 62.497,7.384 62.497,9.008 L62.497,13.501 C62.497,15.125 61.635,15.985 59.917,15.985 L59.917,15.985 Z M59.917,71.86 L54.278,71.86 C52.558,71.86 51.698,71.001 51.698,69.376 L51.698,24.458 C51.698,22.835 52.558,21.975 54.278,21.975 L59.917,21.975 C61.637,21.975 62.497,22.835 62.497,24.458 L62.497,69.376 C62.497,71.001 61.637,71.86 59.917,71.86 L59.917,71.86 Z M95.461,69.854 C95.08,71.191 94.122,71.861 92.69,71.861 L85.712,71.861 C84.279,71.861 83.227,71.191 82.845,69.854 L68.415,24.745 C68.319,24.555 68.319,24.364 68.319,24.076 C68.319,22.643 69.084,21.876 70.71,21.876 L76.06,21.876 C77.496,21.876 78.45,22.545 78.833,23.886 L89.154,56.093 L99.476,23.886 C99.953,22.545 100.909,21.876 102.343,21.876 L107.598,21.876 C109.224,21.876 109.988,22.643 109.988,24.076 C109.988,24.364 109.988,24.555 109.894,24.745 L95.461,69.854 L95.461,69.854 Z M123.87,15.985 L118.231,15.985 C116.51,15.985 115.65,15.125 115.65,13.502 L115.65,9.008 C115.65,7.384 116.51,6.525 118.231,6.525 L123.87,6.525 C125.591,6.525 126.451,7.384 126.451,9.008 L126.451,13.501 C126.451,15.125 125.591,15.985 123.87,15.985 L123.87,15.985 Z M123.87,71.86 L118.231,71.86 C116.51,71.86 115.65,71.001 115.65,69.376 L115.65,24.458 C115.65,22.835 116.51,21.975 118.231,21.975 L123.87,21.975 C125.591,21.975 126.451,22.835 126.451,24.458 L126.451,69.376 C126.451,71.001 125.591,71.86 123.87,71.86 L123.87,71.86 Z M165.652,31.913 C165.079,32.582 164.315,32.772 163.359,32.582 C160.014,31.722 155.425,31.244 149.788,31.244 C148.259,31.244 146.92,31.817 145.773,33.06 C144.53,34.302 143.958,35.831 143.958,37.552 L143.958,56.282 C143.958,58.002 144.531,59.437 145.68,60.678 C146.826,61.921 148.163,62.589 149.788,62.589 C155.425,62.589 159.918,62.111 163.263,61.252 C164.219,60.966 164.983,61.252 165.556,61.824 C166.13,62.493 166.416,63.067 166.416,63.641 L166.416,67.559 C166.416,70.425 160.874,71.86 149.787,71.86 C145.104,71.86 141.185,70.425 138.032,67.461 C134.781,64.502 133.158,60.775 133.158,56.281 L133.158,37.551 C133.158,33.059 134.78,29.427 137.936,26.466 C141.185,23.503 145.103,21.974 149.786,21.974 C160.873,21.974 166.415,23.406 166.415,26.274 L166.415,30.192 C166.417,30.765 166.13,31.34 165.652,31.913 L165.652,31.913 Z M227.334,69.664 C227.334,71.095 226.568,71.86 224.945,71.86 L219.112,71.86 C217.68,71.86 216.628,71.19 216.245,69.853 L210.895,52.841 L189.009,52.841 L183.657,69.853 C183.274,71.19 182.318,71.86 180.886,71.86 L175.056,71.86 C173.431,71.86 172.666,71.094 172.666,69.664 C172.666,69.376 172.666,69.185 172.761,68.994 L193.213,4.006 C193.596,2.668 194.647,2 196.081,2 L203.917,2 C205.352,2 206.402,2.668 206.785,4.006 L227.142,68.994 C227.236,69.185 227.334,69.376 227.334,69.664 L227.334,69.664 Z M200,17.959 L192.066,43.38 L207.932,43.38 L200,17.959 L200,17.959 Z M262.175,31.913 C261.6,32.582 260.836,32.772 259.88,32.582 C256.535,31.722 251.948,31.244 246.31,31.244 C244.78,31.244 243.442,31.817 242.294,33.06 C241.053,34.302 240.478,35.832 240.478,37.552 L240.478,56.282 C240.478,58.002 241.053,59.437 242.199,60.678 C243.346,61.921 244.683,62.589 246.31,62.589 C251.948,62.589 256.439,62.111 259.784,61.252 C260.741,60.966 261.507,61.252 262.077,61.824 C262.652,62.493 262.939,63.067 262.939,63.641 L262.939,67.559 C262.939,70.425 257.395,71.86 246.31,71.86 C241.626,71.86 237.707,70.425 234.554,67.461 C231.305,64.502 229.68,60.775 229.68,56.281 L229.68,37.551 C229.68,33.059 231.305,29.427 234.459,26.466 C237.708,23.503 241.627,21.974 246.311,21.974 C257.396,21.974 262.94,23.406 262.94,26.274 L262.94,30.192 C262.939,30.765 262.652,31.339 262.175,31.913 L262.175,31.913 Z M290.366,71.574 L286.351,71.86 C281.669,72.146 277.75,70.809 274.501,67.655 C271.251,64.502 269.626,60.677 269.626,56.092 L269.626,11.938 C269.626,10.599 270.773,9.645 272.972,9.167 C274.501,8.975 276.031,8.784 277.559,8.592 C278.419,8.497 279.087,8.689 279.565,9.167 C280.14,9.738 280.425,10.409 280.425,11.079 L280.425,22.164 L290.269,22.164 C291.989,22.164 292.849,23.023 292.849,24.647 L292.849,29.043 C292.849,30.669 291.989,31.53 290.269,31.53 L280.425,31.53 L280.425,56.092 C280.425,57.905 281,59.34 282.146,60.582 C283.294,61.823 284.632,62.492 286.255,62.492 L290.269,62.492 C291.989,62.492 292.849,63.352 292.849,64.977 L292.849,69.087 C292.85,70.617 291.989,71.478 290.366,71.574 L290.366,71.574 Z M307.709,15.985 L301.208,15.985 C299.487,15.985 298.627,15.125 298.627,13.502 L298.627,9.008 C298.627,7.384 299.487,6.525 301.208,6.525 L307.709,6.525 C309.429,6.525 310.289,7.384 310.289,9.008 L310.289,13.501 C310.289,15.125 309.429,15.985 307.709,15.985 L307.709,15.985 Z M307.708,71.86 L302.069,71.86 C300.348,71.86 299.488,71.001 299.488,69.376 L299.488,24.458 C299.488,22.835 300.348,21.975 302.069,21.975 L307.708,21.975 C309.429,21.975 310.289,22.835 310.289,24.458 L310.289,69.376 C310.289,71.001 309.429,71.86 307.708,71.86 L307.708,71.86 Z M352.86,67.461 C349.611,70.426 345.693,71.86 341.009,71.86 L333.46,71.86 C328.873,71.86 324.955,70.425 321.801,67.461 C318.55,64.502 316.927,60.775 316.927,56.281 L316.927,37.551 C316.927,33.059 318.55,29.427 321.705,26.466 C324.955,23.503 328.873,21.974 333.554,21.974 L341.009,21.974 C345.693,21.974 349.611,23.406 352.765,26.37 C356.015,29.332 357.638,33.06 357.638,37.552 L357.638,56.282 C357.639,60.775 356.016,64.502 352.86,67.461 L352.86,67.461 Z M346.841,37.551 C346.841,35.831 346.268,34.397 345.121,33.154 C343.877,31.913 342.54,31.244 341.01,31.244 L333.555,31.244 C331.932,31.244 330.594,31.817 329.448,33.06 C328.301,34.302 327.729,35.832 327.729,37.552 L327.631,56.282 C327.631,58.002 328.204,59.437 329.352,60.678 C330.594,61.921 331.932,62.589 333.555,62.589 L341.01,62.589 C342.54,62.589 343.877,62.016 345.024,60.776 C346.268,59.532 346.841,58.002 346.841,56.282 L346.841,37.551 L346.841,37.551 Z M402.008,71.86 L396.369,71.86 C394.648,71.86 393.789,71.001 393.789,69.376 L393.789,37.551 C393.789,35.831 393.213,34.397 392.068,33.154 C390.826,31.913 389.487,31.244 387.958,31.244 L380.506,31.244 C378.879,31.244 377.541,31.817 376.395,33.06 C375.153,34.302 374.581,35.832 374.581,37.552 L374.676,69.377 C374.676,71.002 373.816,71.861 371.999,71.861 L366.456,71.861 C364.736,71.861 363.876,71.002 363.876,69.377 L363.876,37.551 C363.876,33.059 365.502,29.332 368.655,26.369 C371.904,23.405 375.823,21.973 380.507,21.973 L387.959,21.973 C392.644,21.973 396.562,23.405 399.716,26.369 C402.964,29.331 404.59,33.059 404.59,37.551 L404.59,69.376 C404.589,71.001 403.729,71.86 402.008,71.86 L402.008,71.86 Z M438.326,67.75 C435.076,70.521 431.158,71.86 426.472,71.86 C415.387,71.86 409.845,70.425 409.845,67.559 L409.845,63.641 C409.845,63.067 410.132,62.493 410.608,61.92 C411.183,61.251 411.949,60.965 412.903,61.251 C416.248,62.111 420.74,62.588 426.472,62.588 C428.098,62.588 429.533,62.111 430.582,61.155 C431.732,60.105 432.304,58.768 432.304,57.142 C432.304,55.707 431.54,54.561 430.01,53.606 C429.725,53.509 428.29,52.84 425.709,51.693 C419.593,49.019 416.056,47.297 415.006,46.629 C411.566,44.24 409.845,40.895 409.845,36.786 C409.845,32.293 411.47,28.661 414.623,25.986 C417.777,23.311 421.791,21.973 426.472,21.973 C437.369,21.973 442.817,23.405 442.817,26.273 L442.817,30.191 C442.817,30.764 442.532,31.338 442.05,31.911 C441.478,32.58 440.714,32.77 439.76,32.58 C436.412,31.72 431.921,31.242 426.472,31.242 C424.753,31.242 423.321,31.72 422.269,32.676 C421.217,33.728 420.646,35.066 420.646,36.69 C420.646,38.123 421.409,39.27 422.842,40.225 C423.224,40.513 424.657,41.085 427.144,42.137 C432.974,44.527 436.508,46.247 437.942,47.201 C441.381,49.591 443.103,52.936 443.103,57.046 C443.104,61.539 441.479,65.074 438.326,67.75 L438.326,67.75 Z" id="CivicActions_1_" fill="#FFFFFF" sketch:type="MSShapeGroup"></path>
        <path d="M460.132,66.7805 L492.6755,66.7805 L492.6755,71 L455.185,71 L455.185,2.3725 L460.132,2.3725 L460.132,66.7805 Z M530.17,71 C529.199995,71 528.601835,70.5473379 528.3755,69.642 L527.6965,63.4825 C526.370827,64.7758398 525.053257,65.9398282 523.74375,66.9745 C522.434244,68.0091718 521.068174,68.8821631 519.6455,69.5935 C518.222826,70.3048369 516.687008,70.8464148 515.038,71.21825 C513.388992,71.5900852 511.578343,71.776 509.606,71.776 C507.956992,71.776 506.356508,71.5335024 504.8045,71.0485 C503.252492,70.5634976 501.878339,69.8198383 500.682,68.8175 C499.485661,67.8151617 498.523754,66.5299245 497.79625,64.96175 C497.068746,63.3935755 496.705,61.5101777 496.705,59.3115 C496.705,57.2744898 497.286994,55.3830087 498.451,53.637 C499.615006,51.8909913 501.433738,50.3713398 503.90725,49.078 C506.380762,47.7846602 509.565564,46.7500039 513.46175,45.974 C517.357936,45.1979961 522.038139,44.745334 527.5025,44.616 L527.5025,39.572 C527.5025,35.1099777 526.540593,31.6745954 524.61675,29.26575 C522.692907,26.8569046 519.839519,25.6525 516.0565,25.6525 C513.728488,25.6525 511.748092,25.9758301 510.11525,26.6225 C508.482409,27.2691699 507.100172,27.9804961 505.9685,28.7565 C504.836828,29.5325039 503.915337,30.2438301 503.204,30.8905 C502.492663,31.5371699 501.894503,31.8605 501.4095,31.8605 C500.76283,31.8605 500.277835,31.5695029 499.9545,30.9875 L499.13,29.581 C501.652013,27.0589874 504.30332,25.1513398 507.084,23.858 C509.864681,22.5646602 513.017149,21.918 516.5415,21.918 C519.12818,21.918 521.39149,22.3302459 523.3315,23.15475 C525.27151,23.9792541 526.880077,25.159409 528.15725,26.69525 C529.434423,28.231091 530.39633,30.0902391 531.043,32.27275 C531.68967,34.4552609 532.013,36.8883199 532.013,39.572 L532.013,71 L530.17,71 Z M510.77,68.4295 C512.645343,68.4295 514.367076,68.2274187 515.93525,67.82325 C517.503425,67.4190813 518.95841,66.8532536 520.30025,66.12575 C521.64209,65.3982464 522.894994,64.5333383 524.059,63.531 C525.223006,62.5286617 526.370828,61.4455058 527.5025,60.2815 L527.5025,47.72 C522.911144,47.849334 518.958433,48.1969138 515.64425,48.76275 C512.330067,49.3285862 509.597928,50.0964951 507.44775,51.0665 C505.297573,52.0365049 503.713255,53.19241 502.69475,54.53425 C501.676245,55.87609 501.167,57.4038248 501.167,59.1175 C501.167,60.7341748 501.433747,62.1325774 501.96725,63.31275 C502.500753,64.4929226 503.203996,65.4629129 504.077,66.22275 C504.950004,66.9825871 505.968494,67.5403316 507.1325,67.896 C508.296506,68.2516684 509.508994,68.4295 510.77,68.4295 Z M543.948,71 L543.948,0.4325 L548.604,0.4325 L548.604,31.1815 C550.738011,28.3361524 553.211486,26.0890082 556.0245,24.44 C558.837514,22.7909918 562.006149,21.9665 565.5305,21.9665 C571.44753,21.9665 576.063067,24.0115629 579.37725,28.10175 C582.691433,32.1919371 584.3485,38.3432923 584.3485,46.556 C584.3485,50.080351 583.887755,53.3702347 582.96625,56.42575 C582.044746,59.4812653 580.686759,62.1325721 578.89225,64.37975 C577.097741,66.6269279 574.899097,68.3971602 572.29625,69.6905 C569.693404,70.9838398 566.694517,71.6305 563.2995,71.6305 C559.936817,71.6305 557.043012,70.9757565 554.618,69.66625 C552.192988,68.3567435 550.107509,66.4248461 548.3615,63.8705 L548.0705,69.7875 C547.9735,70.5958374 547.537004,71 546.761,71 L543.948,71 Z M564.221,25.6525 C561.019984,25.6525 558.12618,26.4769918 555.5395,28.126 C552.952821,29.7750082 550.64101,32.070652 548.604,35.013 L548.604,60.4755 C550.447009,63.2561806 552.483989,65.2042444 554.715,66.31975 C556.946011,67.4352556 559.516486,67.993 562.4265,67.993 C565.271848,67.993 567.76149,67.4756718 569.8955,66.441 C572.029511,65.4063282 573.81591,63.9432595 575.25475,62.05175 C576.693591,60.1602405 577.776747,57.8969298 578.50425,55.26175 C579.231754,52.6265702 579.5955,49.7246825 579.5955,46.556 C579.5955,39.3779641 578.269847,34.0996002 575.6185,30.72075 C572.967154,27.3418998 569.168025,25.6525 564.221,25.6525 Z M619.903,28.708 C619.676666,29.1606689 619.321003,29.387 618.836,29.387 C618.480332,29.387 618.019586,29.1849187 617.45375,28.78075 C616.887914,28.3765813 616.144255,27.9239192 615.22275,27.42275 C614.301246,26.9215808 613.16959,26.4689187 611.82775,26.06475 C610.48591,25.6605813 608.84501,25.4585 606.905,25.4585 C605.158992,25.4585 603.566591,25.7090808 602.12775,26.21025 C600.68891,26.7114192 599.460255,27.3823291 598.44175,28.223 C597.423245,29.0636709 596.631086,30.0417444 596.06525,31.15725 C595.499414,32.2727556 595.2165,33.4448272 595.2165,34.6735 C595.2165,36.1931743 595.604496,37.4541617 596.3805,38.4565 C597.156504,39.4588383 598.174994,40.3156631 599.436,41.027 C600.697007,41.7383369 602.127742,42.3526641 603.72825,42.87 C605.328758,43.3873359 606.969659,43.9046641 608.651,44.422 C610.332342,44.9393359 611.973242,45.5132468 613.57375,46.14375 C615.174258,46.7742532 616.604994,47.5583286 617.866,48.496 C619.127007,49.4336714 620.145496,50.5814932 620.9215,51.9395 C621.697504,53.2975068 622.0855,54.9464903 622.0855,56.8865 C622.0855,58.9881772 621.705587,60.9443243 620.94575,62.755 C620.185913,64.5656757 619.086591,66.1338267 617.64775,67.4595 C616.20891,68.7851733 614.438677,69.8359961 612.337,70.612 C610.235323,71.3880039 607.84268,71.776 605.159,71.776 C601.763983,71.776 598.837846,71.2344221 596.3805,70.15125 C593.923155,69.0680779 591.72451,67.6535087 589.7845,65.9075 L590.9,64.2585 C591.061668,63.999832 591.239499,63.805834 591.4335,63.6765 C591.627501,63.547166 591.902332,63.4825 592.258,63.4825 C592.678336,63.4825 593.195664,63.7411641 593.81,64.2585 C594.424337,64.7758359 595.224579,65.3335803 596.21075,65.93175 C597.196922,66.5299197 598.425576,67.0876641 599.89675,67.605 C601.367924,68.1223359 603.186656,68.381 605.353,68.381 C607.39001,68.381 609.184493,68.0980862 610.7365,67.53225 C612.288508,66.9664138 613.581828,66.1985049 614.6165,65.2285 C615.651172,64.2584952 616.435248,63.1187565 616.96875,61.80925 C617.502253,60.4997435 617.769,59.1175073 617.769,57.6625 C617.769,56.0458253 617.381004,54.7040053 616.605,53.637 C615.828996,52.5699947 614.810507,51.6646704 613.5495,50.921 C612.288494,50.1773296 610.857758,49.5468359 609.25725,49.0295 C607.656742,48.5121641 606.007759,47.9948359 604.31025,47.4775 C602.612742,46.9601641 600.963758,46.3943364 599.36325,45.78 C597.762742,45.1656636 596.332007,44.3896714 595.071,43.452 C593.809994,42.5143286 592.791504,41.37459 592.0155,40.03275 C591.239496,38.69091 590.8515,37.0176767 590.8515,35.013 C590.8515,33.2993248 591.22333,31.6503413 591.967,30.066 C592.710671,28.4816587 593.769577,27.0913393 595.14375,25.895 C596.517924,24.6986607 598.191157,23.7448369 600.1635,23.0335 C602.135843,22.3221631 604.350655,21.9665 606.808,21.9665 C609.750348,21.9665 612.361239,22.3868291 614.64075,23.2275 C616.920262,24.0681709 619.013824,25.3614913 620.9215,27.1075 L619.903,28.708 Z" id="Labs" fill="#FFFFFF" sketch:type="MSShapeGroup"></path>
    </g>
</svg>