<?xml version="1.0" encoding="UTF-8" standalone="no"?>
<svg width="422px" height="476px" viewBox="0 0 422 476" version="1.1" xmlns="http://www.w3.org/2000/svg" xmlns:xlink="http://www.w3.org/1999/xlink" xmlns:sketch="http://www.bohemiancoding.com/sketch/ns">
    <title>Untitled 15</title>
    <description>Created with Sketch (http://www.bohemiancoding.com/sketch)</description>
    <defs></defs>
    <g id="Page-1" stroke="none" stroke-width="1" fill="none" fill-rule="evenodd" sketch:type="MSPage">
        <rect id="Rectangle-1" fill="#ED1B24" sketch:type="MSShapeGroup" x="0" y="0" width="422" height="476"></rect>
        <g id="CivicActions_1_-+-Labs" sketch:type="MSLayerGroup" transform="translate(25.000000, 370.000000)" fill="#FFFFFF">
            <path d="M23.589129,12.4303812 L20.5025065,12.4303812 C19.5611961,12.4303812 19.0905409,11.9502713 19.0905409,10.9906097 L19.0905409,8.85635351 C19.0905409,7.84253997 18.7758587,7.04198457 18.1486833,6.3486165 C17.4684223,5.65413189 16.7361704,5.28065103 15.8993892,5.28065103 L9.10061076,5.28065103 C8.21183862,5.28065103 7.47849215,5.60165476 6.85131674,6.29446456 C6.1710558,6.98783263 5.85746809,7.84198171 5.85746809,8.85579524 L5.85746809,30.1430882 C5.85746809,31.1569018 6.1710558,31.9580154 6.80042031,32.6508252 C7.47903943,33.3441933 8.21238589,33.7176742 9.04861978,33.7176742 L15.8999365,33.7176742 C16.7367177,33.7176742 17.4689696,33.3972287 18.0972396,32.7044189 C18.7764059,32.0110508 19.0905409,31.15746 19.0905409,30.1430882 L19.0905409,27.9557967 C19.0905409,27.0486122 19.5611961,26.5685023 20.5025065,26.5685023 L23.5360434,26.5685023 C24.4762593,26.5685023 24.9474617,27.0486122 24.9474617,27.9557967 L24.9474617,30.1430882 C24.9474617,32.7044189 24.0581423,34.8381168 22.332589,36.492263 C20.6070357,38.1469675 18.4633655,39 15.8993892,39 L9.0480725,39 C6.53772903,39 4.39351153,38.1469675 2.66686369,36.492263 C0.889319411,34.838675 0,32.7049772 0,30.1436465 L0,8.85635351 C0,6.29502283 0.889319411,4.16076669 2.61432543,2.50662048 C4.39351153,0.853590804 6.53772903,0 9.10061076,0 L15.8993892,0 C18.4633655,0 20.6070357,0.853590804 22.332589,2.50717875 C24.1112279,4.16132495 25,6.29502283 25,8.85691178 L25,11.0442033 C25,11.9502713 24.5293448,12.4303812 23.589129,12.4303812 L23.589129,12.4303812 Z M33.5665339,8 L30.4334661,8 C29.477822,8 29,7.54545455 29,6.68763214 L29,4.31236786 C29,3.45401691 29.477822,3 30.4334661,3 L33.5665339,3 C34.5210668,3 35,3.45401691 35,4.31236786 L35,6.68710359 C35,7.54545455 34.5210668,8 33.5665339,8 L33.5665339,8 Z M33.5665339,39 L30.4334661,39 C29.477822,39 29,38.5178511 29,37.6057532 L29,12.3936855 C29,11.4827102 29.477822,11 30.4334661,11 L33.5665339,11 C34.522178,11 35,11.4827102 35,12.3936855 L35,37.6057532 C35,38.5178511 34.522178,39 33.5665339,39 L33.5665339,39 Z M52.981545,37.8757427 C52.7712448,38.6246874 52.2424584,39 51.4520387,39 L47.6003984,39 C46.8094267,39 46.2287552,38.6246874 46.017903,37.8757427 L38.052989,12.6071221 C38,12.5006902 38,12.3936981 38,12.2323697 C38,11.4296489 38.4222564,11 39.3197581,11 L42.2727927,11 C43.0654203,11 43.5919988,11.3747524 43.803403,12.1259378 L49.500276,30.1672702 L55.1977009,12.1259378 C55.4609902,11.3747524 55.9886726,11 56.7801963,11 L59.6807939,11 C60.5782956,11 61,11.4296489 61,12.2323697 C61,12.3936981 61,12.5006902 60.9481149,12.6071221 L52.981545,37.8757427 L52.981545,37.8757427 Z M68.5662439,8 L65.4337561,8 C64.4777335,8 64,7.54545455 64,6.68763214 L64,4.31236786 C64,3.45401691 64.4777335,3 65.4337561,3 L68.5662439,3 C69.5222665,3 70,3.45401691 70,4.31236786 L70,6.68710359 C70,7.54545455 69.5222665,8 68.5662439,8 L68.5662439,8 Z M68.5662439,39 L65.4337561,39 C64.4777335,39 64,38.5178511 64,37.6057532 L64,12.3936855 C64,11.4827102 64.4777335,11 65.4337561,11 L68.5662439,11 C69.5222665,11 70,11.4827102 70,12.3936855 L70,37.6057532 C70,38.5178511 69.5222665,39 68.5662439,39 L68.5662439,39 Z M92.5635336,16.5785591 C92.2361838,16.9540552 91.7997174,17.0606984 91.2535631,16.9540552 C89.3425943,16.4713547 86.7209393,16.203063 83.5005713,16.203063 C82.6270672,16.203063 81.8621084,16.5246763 81.2068375,17.222347 C80.4967226,17.9194564 80.1699441,18.777653 80.1699441,19.7436154 L80.1699441,30.2563846 C80.1699441,31.2217857 80.4972939,32.0272221 81.1537074,32.7237702 C81.808407,33.4214409 82.5722232,33.7963757 83.5005713,33.7963757 C86.7209393,33.7963757 89.2877503,33.528084 91.1987191,33.0459448 C91.7448734,32.8854188 92.1813398,33.0459448 92.5086896,33.3669968 C92.8366107,33.7424929 93,34.0646674 93,34.386842 L93,36.5859359 C93,38.1945636 89.8339046,39 83.5,39 C80.8246437,39 78.5857538,38.1945636 76.7844729,36.5309305 C74.9272055,34.8701038 74,32.7782143 74,30.2558233 L74,19.7430542 C74,17.2217857 74.9266342,15.1832177 76.729629,13.5212685 C78.5857538,11.8581967 80.8240724,11 83.4994287,11 C89.8333333,11 92.9994287,11.8037526 92.9994287,13.4135028 L92.9994287,15.6125967 C93.0005713,15.93421 92.8366107,16.2569458 92.5635336,16.5785591 L92.5635336,16.5785591 Z M126,37.7740624 C126,38.5729316 125.579644,39 124.688995,39 L121.488037,39 C120.702202,39 120.124899,38.6259662 119.914722,37.8795734 L116.978818,28.3824649 L104.968501,28.3824649 L102.031499,37.8795734 C101.821321,38.6259662 101.2967,39 100.510866,39 L97.3115534,39 C96.4198068,39 96,38.5723733 96,37.7740624 C96,37.6132837 96,37.5066562 96.0521329,37.4000286 L107.275518,1.11986831 C107.485695,0.372917263 108.06245,0 108.849382,0 L113.149521,0 C113.937002,0 114.513207,0.372917263 114.723385,1.11986831 L125.894637,37.4000286 C125.946221,37.5066562 126,37.6132837 126,37.7740624 L126,37.7740624 Z M111.500567,9 L107,23 L116,23 L111.500567,9 L111.500567,9 Z M146.562989,16.5785591 C146.234516,16.9540552 145.798076,17.0606984 145.251954,16.9540552 C143.3411,16.4713547 140.720746,16.203063 137.5,16.203063 C136.625977,16.203063 135.861636,16.5246763 135.205833,17.222347 C134.496903,17.9194564 134.168431,18.7782143 134.168431,19.7436154 L134.168431,30.2563846 C134.168431,31.2217857 134.496903,32.0272221 135.151563,32.7237702 C135.806795,33.4214409 136.570565,33.7963757 137.5,33.7963757 C140.720746,33.7963757 143.28626,33.528084 145.197114,33.0459448 C145.743806,32.8854188 146.181389,33.0459448 146.507005,33.3669968 C146.835478,33.7424929 146.999429,34.0646674 146.999429,34.386842 L146.999429,36.5859359 C146.999429,38.1945636 143.832381,39 137.5,39 C134.824233,39 132.585478,38.1945636 130.784305,36.5309305 C128.928292,34.8701038 128,32.7782143 128,30.2558233 L128,19.7430542 C128,17.2217857 128.928292,15.1832177 130.730036,13.5212685 C132.586049,11.8581967 134.824805,11 137.500571,11 C143.832952,11 147,11.8037526 147,13.4135028 L147,15.6125967 C146.999429,15.93421 146.835478,16.2563846 146.562989,16.5785591 L146.562989,16.5785591 Z M161.610041,38.82112 L159.362485,38.9791828 C156.741549,39.1372456 154.547733,38.3983296 152.728975,36.6552174 C150.909658,34.9126578 150,32.7987059 150,30.264727 L150,5.8622612 C150,5.12223987 150.642079,4.5949954 151.873057,4.3308205 C152.728975,4.2247084 153.585454,4.11914898 154.440813,4.01303688 C154.922232,3.9605335 155.296172,4.0666456 155.563751,4.3308205 C155.88563,4.64639345 156.045171,5.01723311 156.045171,5.38752011 L156.045171,11.5138356 L161.555742,11.5138356 C162.51858,11.5138356 163,11.9885767 163,12.8861081 L163,15.315633 C163,16.2142698 162.51858,16.6901162 161.555742,16.6901162 L156.045171,16.6901162 L156.045171,30.264727 C156.045171,31.2667125 156.36705,32.0597899 157.008569,32.7462025 C157.651208,33.4320625 158.400206,33.8017968 159.308745,33.8017968 L161.555742,33.8017968 C162.51858,33.8017968 163,34.2770906 163,35.1751747 L163,37.4466367 C163.000559,38.2922175 162.51858,38.7680639 161.610041,38.82112 L161.610041,38.82112 Z M172.451381,8 L168.54922,8 C167.516206,8 167,7.54545455 167,6.68763214 L167,4.31236786 C167,3.45401691 167.516206,3 168.54922,3 L172.451381,3 C173.483794,3 174,3.45401691 174,4.31236786 L174,6.68710359 C174,7.54545455 173.483794,8 172.451381,8 L172.451381,8 Z M171.566244,39 L168.433756,39 C167.477734,39 167,38.5178511 167,37.6057532 L167,12.3936855 C167,11.4827102 167.477734,11 168.433756,11 L171.566244,11 C172.522266,11 173,11.4827102 173,12.3936855 L173,37.6057532 C173,38.5178511 172.522266,39 171.566244,39 L171.566244,39 Z M197.300631,36.5309305 C195.465083,38.1951249 193.251578,39 190.605315,39 L186.340448,39 C183.748987,39 181.535482,38.1945636 179.753605,36.5309305 C177.916927,34.8701038 177,32.7782143 177,30.2558233 L177,19.7430542 C177,17.2217857 177.916927,15.1832177 179.699369,13.5212685 C181.535482,11.8581967 183.748987,11 186.393554,11 L190.605315,11 C193.251578,11 195.465083,11.8037526 197.24696,13.4673856 C199.083073,15.1298962 200,17.222347 200,19.7436154 L200,30.2563846 C200.000565,32.7782143 199.083638,34.8701038 197.300631,36.5309305 L197.300631,36.5309305 Z M194,19.4206093 C194,18.4877652 193.67189,17.7100335 193.015096,17.0358909 C192.302759,16.362833 191.537168,16 190.661062,16 L186.392192,16 C185.462832,16 184.696668,16.3107673 184.040448,16.9849099 C183.383654,17.6585101 183.056117,18.4883075 183.056117,19.4211517 L183,29.5793907 C183,30.5122348 183.32811,31.2905089 183.985476,31.9635668 C184.696668,32.6377094 185.462832,33 186.392192,33 L190.661062,33 C191.537168,33 192.302759,32.6892327 192.959552,32.0167172 C193.67189,31.3420322 194,30.5122348 194,29.5793907 L194,19.4206093 L194,19.4206093 Z M224.541386,38.9994387 L221.355824,38.9994387 C220.383603,38.9994387 219.89834,38.5173188 219.89834,37.6052758 L219.89834,19.7432649 C219.89834,18.7779025 219.572948,17.9730597 218.926119,17.2754169 C218.224493,16.5788967 217.46807,16.2034157 216.604313,16.2034157 L212.394557,16.2034157 C211.475438,16.2034157 210.71958,16.525016 210.072186,17.2226588 C209.37056,17.9197402 209.047428,18.7784638 209.047428,19.7438262 L209.101095,37.6058371 C209.101095,38.5178801 208.615267,39 207.588815,39 L204.457484,39 C203.485828,39 203,38.5178801 203,37.6058371 L203,19.7432649 C203,17.2220975 203.918554,15.1302919 205.699735,13.4672867 C207.535148,11.8037203 209.749054,11 212.395122,11 L216.604878,11 C219.251511,11 221.464852,11.8037203 223.246598,13.4672867 C225.081446,15.1297306 226,17.2220975 226,19.7432649 L226,37.6052758 C225.999435,38.5173188 225.513607,38.9994387 224.541386,38.9994387 L224.541386,38.9994387 Z M245.270942,36.6931866 C243.414246,38.2484615 241.175927,39 238.498857,39 C232.166095,39 229,38.1945798 229,36.5859843 L229,34.3869345 C229,34.0647664 229.163961,33.7425983 229.435895,33.4209914 C229.764388,33.0455028 230.201996,32.8849801 230.747008,33.0455028 C232.657977,33.5281937 235.224217,33.7959188 238.498857,33.7959188 C239.427777,33.7959188 240.247579,33.5281937 240.846864,32.9916211 C241.503849,32.4022892 241.830627,31.6518732 241.830627,30.7392507 C241.830627,29.9338305 241.394161,29.2906168 240.520085,28.7546054 C240.357267,28.7001624 239.537465,28.3246738 238.062962,27.6808988 C234.568946,26.180067 232.548289,25.2135627 231.948433,24.8386353 C229.983192,23.4977649 229,21.6203219 229,19.3140698 C229,16.7922906 229.928348,14.7537635 231.729629,13.2523704 C233.531481,11.7509772 235.824644,11 238.498857,11 C244.724217,11 247.83661,11.8037364 247.83661,13.4134544 L247.83661,15.6125043 C247.83661,15.9341111 247.673793,16.2562792 247.39843,16.577886 C247.071652,16.9533746 246.635185,17.0600156 246.090174,16.9533746 C244.177491,16.4706837 241.611823,16.2023974 238.498857,16.2023974 C237.516808,16.2023974 236.698719,16.4706837 236.097721,17.0072564 C235.496723,17.5977108 235.170515,18.348688 235.170515,19.260188 C235.170515,20.0644857 235.60641,20.7082607 236.425071,21.2442721 C236.643304,21.4059174 237.461964,21.7269629 238.882765,22.3174174 C242.213392,23.658849 244.232335,24.6242308 245.051566,25.1596809 C247.016236,26.5011125 248,28.3785555 248,30.6853689 C248.000571,33.2071482 247.072223,35.1912322 245.270942,36.6931866 L245.270942,36.6931866 Z" id="CivicActions_1_" sketch:type="MSShapeGroup"></path>
            <path d="M3.424,78.651 L21.541,78.651 L21.541,81 L0.67,81 L0.67,42.795 L3.424,42.795 L3.424,78.651 Z M43.14,81 C42.5999973,81 42.2670006,80.7480025 42.141,80.244 L41.763,76.815 C41.0249963,77.5350036 40.2915036,78.1829971 39.5625,78.759 C38.8334964,79.3350029 38.073004,79.820998 37.281,80.217 C36.488996,80.613002 35.6340046,80.914499 34.716,81.1215 C33.7979954,81.328501 32.7900055,81.432 31.692,81.432 C30.7739954,81.432 29.8830043,81.2970014 29.019,81.027 C28.1549957,80.7569987 27.3900033,80.3430028 26.724,79.785 C26.0579967,79.2269972 25.522502,78.5115044 25.1175,77.6385 C24.712498,76.7654956 24.51,75.7170061 24.51,74.493 C24.51,73.3589943 24.8339968,72.3060049 25.482,71.334 C26.1300032,70.3619951 27.1424931,69.5160036 28.5195,68.796 C29.8965069,68.0759964 31.6694892,67.5000022 33.8385,67.068 C36.0075108,66.6359978 38.6129848,66.3840004 41.655,66.312 L41.655,63.504 C41.655,61.0199876 41.1195054,59.1075067 40.0485,57.7665 C38.9774946,56.4254933 37.3890105,55.755 35.283,55.755 C33.9869935,55.755 32.8845045,55.9349982 31.9755,56.295 C31.0664955,56.6550018 30.2970031,57.0509978 29.667,57.483 C29.0369968,57.9150022 28.524002,58.3109982 28.128,58.671 C27.731998,59.0310018 27.3990013,59.211 27.129,59.211 C26.7689982,59.211 26.4990009,59.0490016 26.319,58.725 L25.86,57.942 C27.264007,56.537993 28.7399923,55.4760036 30.288,54.756 C31.8360077,54.0359964 33.5909902,53.676 35.553,53.676 C36.9930072,53.676 38.2529946,53.9054977 39.333,54.3645 C40.4130054,54.8235023 41.3084964,55.4804957 42.0195,56.3355 C42.7305036,57.1905043 43.2659982,58.2254939 43.626,59.4405 C43.9860018,60.6555061 44.166,62.0099925 44.166,63.504 L44.166,81 L43.14,81 Z M32.34,79.569 C33.3840052,79.569 34.3424956,79.4565011 35.2155,79.2315 C36.0885044,79.0064989 36.8984963,78.691502 37.6455,78.2865 C38.3925037,77.881498 39.0899968,77.4000028 39.738,76.842 C40.3860032,76.2839972 41.0249968,75.6810032 41.655,75.033 L41.655,68.04 C39.0989872,68.1120004 36.8985092,68.3054984 35.0535,68.6205 C33.2084908,68.9355016 31.687506,69.3629973 30.4905,69.903 C29.293494,70.4430027 28.4115028,71.0864963 27.8445,71.8335 C27.2774972,72.5805037 26.994,73.4309952 26.994,74.385 C26.994,75.2850045 27.1424985,76.0634967 27.4395,76.7205 C27.7365015,77.3775033 28.1279976,77.9174979 28.614,78.3405 C29.1000024,78.7635021 29.6669968,79.073999 30.315,79.272 C30.9630032,79.470001 31.6379965,79.569 32.34,79.569 Z M51.536,81 L51.536,41.715 L54.128,41.715 L54.128,58.833 C55.3160059,57.2489921 56.6929922,55.9980046 58.259,55.08 C59.8250078,54.1619954 61.5889902,53.703 63.551,53.703 C66.8450165,53.703 69.4144908,54.8414886 71.2595,57.1185 C73.1045092,59.3955114 74.027,62.8199771 74.027,67.392 C74.027,69.3540098 73.7705026,71.1854915 73.2575,72.8865 C72.7444974,74.5875085 71.988505,76.0634937 70.9895,77.3145 C69.990495,78.5655063 68.7665072,79.5509964 67.3175,80.271 C65.8684928,80.9910036 64.1990094,81.351 62.309,81.351 C60.4369906,81.351 58.8260067,80.9865036 57.476,80.2575 C56.1259932,79.5284964 54.9650049,78.4530071 53.993,77.031 L53.831,80.325 C53.7769997,80.7750023 53.5340022,81 53.102,81 L51.536,81 Z M62.822,55.755 C61.0399911,55.755 59.4290072,56.2139954 57.989,57.132 C56.5489928,58.0500046 55.2620057,59.3279918 54.128,60.966 L54.128,75.141 C55.1540051,76.6890077 56.2879938,77.7734969 57.53,78.3945 C58.7720062,79.0155031 60.2029919,79.326 61.823,79.326 C63.4070079,79.326 64.7929941,79.0380029 65.981,78.462 C67.1690059,77.8859971 68.163496,77.0715053 68.9645,76.0185 C69.765504,74.9654947 70.368498,73.7055073 70.7735,72.2385 C71.178502,70.7714927 71.381,69.1560088 71.381,67.392 C71.381,63.39598 70.6430074,60.4575094 69.167,58.5765 C67.6909926,56.6954906 65.5760138,55.755 62.822,55.755 Z M94.546,57.456 C94.4199994,57.7080013 94.2220013,57.834 93.952,57.834 C93.753999,57.834 93.4975016,57.7215011 93.1825,57.4965 C92.8674984,57.2714989 92.4535026,57.0195014 91.9405,56.7405 C91.4274974,56.4614986 90.7975037,56.2095011 90.0505,55.9845 C89.3034963,55.7594989 88.3900054,55.647 87.31,55.647 C86.3379951,55.647 85.451504,55.7864986 84.6505,56.0655 C83.849496,56.3445014 83.1655028,56.7179977 82.5985,57.186 C82.0314972,57.6540023 81.5905016,58.1984969 81.2755,58.8195 C80.9604984,59.4405031 80.803,60.0929966 80.803,60.777 C80.803,61.6230042 81.0189978,62.3249972 81.451,62.883 C81.8830022,63.4410028 82.4499965,63.917998 83.152,64.314 C83.8540035,64.710002 84.6504955,65.0519986 85.5415,65.34 C86.4325045,65.6280014 87.3459953,65.9159986 88.282,66.204 C89.2180047,66.4920014 90.1314955,66.8114982 91.0225,67.1625 C91.9135045,67.5135018 92.7099965,67.9499974 93.412,68.472 C94.1140035,68.9940026 94.6809978,69.6329962 95.113,70.389 C95.5450022,71.1450038 95.761,72.0629946 95.761,73.143 C95.761,74.3130058 95.5495021,75.401995 95.1265,76.41 C94.7034979,77.418005 94.091504,78.2909963 93.2905,79.029 C92.489496,79.7670037 91.5040058,80.3519978 90.334,80.784 C89.1639942,81.2160022 87.8320075,81.432 86.338,81.432 C84.4479906,81.432 82.8190068,81.130503 81.451,80.5275 C80.0829932,79.924497 78.8590054,79.1370049 77.779,78.165 L78.4,77.247 C78.4900005,77.1029993 78.5889995,76.9950004 78.697,76.923 C78.8050005,76.8509996 78.957999,76.815 79.156,76.815 C79.3900012,76.815 79.6779983,76.9589986 80.02,77.247 C80.3620017,77.5350014 80.8074973,77.8454983 81.3565,78.1785 C81.9055027,78.5115017 82.5894959,78.8219986 83.4085,79.11 C84.2275041,79.3980014 85.239994,79.542 86.446,79.542 C87.5800057,79.542 88.5789957,79.3845016 89.443,79.0695 C90.3070043,78.7544984 91.0269971,78.3270027 91.603,77.787 C92.1790029,77.2469973 92.6154985,76.6125036 92.9125,75.8835 C93.2095015,75.1544964 93.358,74.385004 93.358,73.575 C93.358,72.6749955 93.1420022,71.928003 92.71,71.334 C92.2779978,70.739997 91.7110035,70.2360021 91.009,69.822 C90.3069965,69.4079979 89.5105045,69.0570014 88.6195,68.769 C87.7284955,68.4809986 86.8105047,68.1930014 85.8655,67.905 C84.9204953,67.6169986 84.0025045,67.3020017 83.1115,66.96 C82.2204955,66.6179983 81.4240035,66.1860026 80.722,65.664 C80.0199965,65.1419974 79.4530022,64.5075037 79.021,63.7605 C78.5889978,63.0134963 78.373,62.0820056 78.373,60.966 C78.373,60.0119952 78.5799979,59.0940044 78.994,58.212 C79.4080021,57.3299956 79.9974962,56.5560033 80.7625,55.89 C81.5275038,55.2239967 82.4589945,54.693002 83.557,54.297 C84.6550055,53.900998 85.8879932,53.703 87.256,53.703 C88.8940082,53.703 90.3474937,53.9369977 91.6165,54.405 C92.8855063,54.8730023 94.0509947,55.5929951 95.113,56.565 L94.546,57.456 Z" id="Labs" sketch:type="MSShapeGroup"></path>
        </g>
        <rect id="Rectangle-2" opacity="0.326988636" fill="#FFFFFF" sketch:type="MSShapeGroup" x="0" y="107" width="422" height="96"></rect>
        <path d="M51.7,163.64 C52.0000015,164.200003 52.2599989,164.799997 52.48,165.44 C52.6000006,165.119998 52.7249993,164.805002 52.855,164.495 C52.9850007,164.184998 53.1299992,163.890001 53.29,163.61 L69.97,134.12 C70.1300008,133.859999 70.2899992,133.7 70.45,133.64 C70.6100008,133.58 70.8299986,133.55 71.11,133.55 L73.24,133.55 L73.24,176 L70.54,176 L70.54,139.82 C70.54,139.299997 70.5699997,138.750003 70.63,138.17 L53.92,167.84 C53.6399986,168.360003 53.2400026,168.62 52.72,168.62 L52.24,168.62 C51.7399975,168.62 51.3400015,168.360003 51.04,167.84 L33.88,138.14 C33.9400003,138.720003 33.97,139.279997 33.97,139.82 L33.97,176 L31.3,176 L31.3,133.55 L33.4,133.55 C33.6800014,133.55 33.9049992,133.58 34.075,133.64 C34.2450008,133.7 34.4099992,133.859999 34.57,134.12 L51.7,163.64 Z M102.45,176 C101.849997,176 101.480001,175.720003 101.34,175.16 L100.92,171.35 C100.099996,172.150004 99.285004,172.869997 98.475,173.51 C97.6649959,174.150003 96.8200044,174.689998 95.94,175.13 C95.0599956,175.570002 94.1100051,175.904999 93.09,176.135 C92.0699949,176.365001 90.9500061,176.48 89.73,176.48 C88.7099949,176.48 87.7200048,176.330001 86.76,176.03 C85.7999952,175.729998 84.9500037,175.270003 84.21,174.65 C83.4699963,174.029997 82.8750022,173.235005 82.425,172.265 C81.9749977,171.294995 81.75,170.130007 81.75,168.77 C81.75,167.509994 82.1099964,166.340005 82.83,165.26 C83.5500036,164.179995 84.6749923,163.240004 86.205,162.44 C87.7350077,161.639996 89.704988,161.000002 92.115,160.52 C94.525012,160.039998 97.4199831,159.76 100.8,159.68 L100.8,156.56 C100.8,153.799986 100.205006,151.675007 99.015,150.185 C97.824994,148.694993 96.0600117,147.95 93.72,147.95 C92.2799928,147.95 91.0550051,148.149998 90.045,148.55 C89.0349949,148.950002 88.1800035,149.389998 87.48,149.87 C86.7799965,150.350002 86.2100022,150.789998 85.77,151.19 C85.3299978,151.590002 84.9600015,151.79 84.66,151.79 C84.259998,151.79 83.960001,151.610002 83.76,151.25 L83.25,150.38 C84.8100078,148.819992 86.4499914,147.640004 88.17,146.84 C89.8900086,146.039996 91.8399891,145.64 94.02,145.64 C95.620008,145.64 97.019994,145.894997 98.22,146.405 C99.420006,146.915003 100.414996,147.644995 101.205,148.595 C101.995004,149.545005 102.589998,150.694993 102.99,152.045 C103.390002,153.395007 103.59,154.899992 103.59,156.56 L103.59,176 L102.45,176 Z M90.45,174.41 C91.6100058,174.41 92.6749952,174.285001 93.645,174.035 C94.6150048,173.784999 95.5149958,173.435002 96.345,172.985 C97.1750041,172.534998 97.9499964,172.000003 98.67,171.38 C99.3900036,170.759997 100.099996,170.090004 100.8,169.37 L100.8,161.6 C97.9599858,161.68 95.5150102,161.894998 93.465,162.245 C91.4149897,162.595002 89.7250066,163.069997 88.395,163.67 C87.0649933,164.270003 86.0850032,164.984996 85.455,165.815 C84.8249968,166.645004 84.51,167.589995 84.51,168.65 C84.51,169.650005 84.6749983,170.514996 85.005,171.245 C85.3350016,171.975004 85.7699973,172.574998 86.31,173.045 C86.8500027,173.515002 87.4799964,173.859999 88.2,174.08 C88.9200036,174.300001 89.6699961,174.41 90.45,174.41 Z M111.59,176 L111.59,146.15 L113.15,146.15 C113.670003,146.15 113.97,146.399997 114.05,146.9 L114.32,151.4 C115.680007,149.679991 117.264991,148.295005 119.075,147.245 C120.885009,146.194995 122.899989,145.67 125.12,145.67 C126.760008,145.67 128.204994,145.929997 129.455,146.45 C130.705006,146.970003 131.739996,147.719995 132.56,148.7 C133.380004,149.680005 133.999998,150.859993 134.42,152.24 C134.840002,153.620007 135.05,155.179991 135.05,156.92 L135.05,176 L132.2,176 L132.2,156.92 C132.2,154.119986 131.560006,151.925008 130.28,150.335 C128.999994,148.744992 127.040013,147.95 124.4,147.95 C122.43999,147.95 120.620008,148.454995 118.94,149.465 C117.259992,150.475005 115.760007,151.859991 114.44,153.62 L114.44,176 L111.59,176 Z M145.18,146.15 L145.18,165.23 C145.18,168.030014 145.819994,170.224992 147.1,171.815 C148.380006,173.405008 150.329987,174.2 152.95,174.2 C154.89001,174.2 156.699992,173.705005 158.38,172.715 C160.060008,171.724995 161.569993,170.350009 162.91,168.59 L162.91,146.15 L165.79,146.15 L165.79,176 L164.2,176 C163.639997,176 163.35,175.740003 163.33,175.22 L163.06,170.78 C161.679993,172.500009 160.085009,173.879995 158.275,174.92 C156.464991,175.960005 154.450011,176.48 152.23,176.48 C150.569992,176.48 149.120006,176.220003 147.88,175.7 C146.639994,175.179997 145.610004,174.430005 144.79,173.45 C143.969996,172.469995 143.350002,171.290007 142.93,169.91 C142.509998,168.529993 142.3,166.970009 142.3,165.23 L142.3,146.15 L145.18,146.15 Z M193.56,176 C192.959997,176 192.590001,175.720003 192.45,175.16 L192.03,171.35 C191.209996,172.150004 190.395004,172.869997 189.585,173.51 C188.774996,174.150003 187.930004,174.689998 187.05,175.13 C186.169996,175.570002 185.220005,175.904999 184.2,176.135 C183.179995,176.365001 182.060006,176.48 180.84,176.48 C179.819995,176.48 178.830005,176.330001 177.87,176.03 C176.909995,175.729998 176.060004,175.270003 175.32,174.65 C174.579996,174.029997 173.985002,173.235005 173.535,172.265 C173.084998,171.294995 172.86,170.130007 172.86,168.77 C172.86,167.509994 173.219996,166.340005 173.94,165.26 C174.660004,164.179995 175.784992,163.240004 177.315,162.44 C178.845008,161.639996 180.814988,161.000002 183.225,160.52 C185.635012,160.039998 188.529983,159.76 191.91,159.68 L191.91,156.56 C191.91,153.799986 191.315006,151.675007 190.125,150.185 C188.934994,148.694993 187.170012,147.95 184.83,147.95 C183.389993,147.95 182.165005,148.149998 181.155,148.55 C180.144995,148.950002 179.290004,149.389998 178.59,149.87 C177.889996,150.350002 177.320002,150.789998 176.88,151.19 C176.439998,151.590002 176.070001,151.79 175.77,151.79 C175.369998,151.79 175.070001,151.610002 174.87,151.25 L174.36,150.38 C175.920008,148.819992 177.559991,147.640004 179.28,146.84 C181.000009,146.039996 182.949989,145.64 185.13,145.64 C186.730008,145.64 188.129994,145.894997 189.33,146.405 C190.530006,146.915003 191.524996,147.644995 192.315,148.595 C193.105004,149.545005 193.699998,150.694993 194.1,152.045 C194.500002,153.395007 194.7,154.899992 194.7,156.56 L194.7,176 L193.56,176 Z M181.56,174.41 C182.720006,174.41 183.784995,174.285001 184.755,174.035 C185.725005,173.784999 186.624996,173.435002 187.455,172.985 C188.285004,172.534998 189.059996,172.000003 189.78,171.38 C190.500004,170.759997 191.209996,170.090004 191.91,169.37 L191.91,161.6 C189.069986,161.68 186.62501,161.894998 184.575,162.245 C182.52499,162.595002 180.835007,163.069997 179.505,163.67 C178.174993,164.270003 177.195003,164.984996 176.565,165.815 C175.934997,166.645004 175.62,167.589995 175.62,168.65 C175.62,169.650005 175.784998,170.514996 176.115,171.245 C176.445002,171.975004 176.879997,172.574998 177.42,173.045 C177.960003,173.515002 178.589996,173.859999 179.31,174.08 C180.030004,174.300001 180.779996,174.41 181.56,174.41 Z M206.39,132.35 L206.39,176 L203.54,176 L203.54,132.35 L206.39,132.35 Z" id="Manual" fill="#FFFFFF" sketch:type="MSShapeGroup"></path>
    </g>
</svg>